<mxfile host="65bd71144e">
    <diagram id="YQEeyEsAXImCTdxHAv1M" name="第 1 页">
        <mxGraphModel dx="1730" dy="1285" grid="0" gridSize="10" guides="1" tooltips="1" connect="1" arrows="1" fold="1" page="1" pageScale="1" pageWidth="2339" pageHeight="3300" background="#ffffff" math="0" shadow="0">
            <root>
                <mxCell id="0"/>
                <mxCell id="1" parent="0"/>
                <mxCell id="434" value="" style="rounded=1;whiteSpace=wrap;html=1;fontSize=16;fillColor=#E0D3C3;container=0;" parent="1" vertex="1">
                    <mxGeometry x="744" y="833" width="1493" height="137" as="geometry"/>
                </mxCell>
                <mxCell id="435" value="Version 0" style="rounded=1;whiteSpace=wrap;html=1;fontSize=26;fillColor=#D8B29C;fontColor=default;labelBackgroundColor=none;container=0;strokeWidth=1;" parent="1" vertex="1">
                    <mxGeometry x="820" y="847.5" width="223" height="108" as="geometry"/>
                </mxCell>
                <mxCell id="436" value="Version 1" style="rounded=1;whiteSpace=wrap;html=1;fontSize=26;fillColor=#D8B29C;fontColor=default;labelBackgroundColor=none;container=0;strokeWidth=1;" parent="1" vertex="1">
                    <mxGeometry x="1401" y="847.5" width="223" height="108" as="geometry"/>
                </mxCell>
                <mxCell id="437" value="Version 2" style="rounded=1;whiteSpace=wrap;html=1;fontSize=26;fillColor=#D8B29C;fontColor=default;labelBackgroundColor=none;container=0;strokeWidth=1;" parent="1" vertex="1">
                    <mxGeometry x="1981" y="847.5" width="223" height="108" as="geometry"/>
                </mxCell>
                <mxCell id="451" value="" style="group" parent="1" vertex="1" connectable="0">
                    <mxGeometry x="487" y="1120" width="814" height="310" as="geometry"/>
                </mxCell>
                <mxCell id="450" value="" style="rounded=1;whiteSpace=wrap;html=1;fontSize=26;fillColor=#F9F6F1;" parent="451" vertex="1">
                    <mxGeometry width="814" height="310" as="geometry"/>
                </mxCell>
                <mxCell id="438" value="Level0 Table1&lt;br&gt;key range: ace-dog" style="rounded=1;whiteSpace=wrap;html=1;fontSize=16;fillColor=#CEAEB9;" parent="451" vertex="1">
                    <mxGeometry x="38" y="122" width="230" height="60" as="geometry"/>
                </mxCell>
                <mxCell id="439" value="&lt;font style=&quot;font-size: 16px;&quot;&gt;MemTable&amp;nbsp; &lt;br&gt;&amp;nbsp;keys:&amp;nbsp; ace,cad...&lt;/font&gt;" style="rounded=1;whiteSpace=wrap;html=1;fillColor=#C3BAB1;" parent="451" vertex="1">
                    <mxGeometry x="38" y="32" width="220" height="60" as="geometry"/>
                </mxCell>
                <mxCell id="440" value="Level0 Table2&lt;br&gt;key range: boy-edge" style="rounded=1;whiteSpace=wrap;html=1;fontSize=16;fillColor=#CEAEB9;" parent="451" vertex="1">
                    <mxGeometry x="288" y="122" width="230" height="60" as="geometry"/>
                </mxCell>
                <mxCell id="441" value="Level0 Table3&lt;br&gt;key range: abandon-jealous" style="rounded=1;whiteSpace=wrap;html=1;fontSize=16;fillColor=#CEAEB9;" parent="451" vertex="1">
                    <mxGeometry x="538" y="122" width="230" height="60" as="geometry"/>
                </mxCell>
                <mxCell id="442" value="Level 1 Table1&amp;nbsp;&lt;br&gt;key range: abandon-ace" style="rounded=1;whiteSpace=wrap;html=1;fontSize=16;fillColor=#CEABC5;" parent="451" vertex="1">
                    <mxGeometry x="38" y="212" width="230" height="60" as="geometry"/>
                </mxCell>
                <mxCell id="443" value="Level 1 Table2&lt;br&gt;key range: boy-dog" style="rounded=1;whiteSpace=wrap;html=1;fontSize=16;fillColor=#CEABC5;" parent="451" vertex="1">
                    <mxGeometry x="288" y="212" width="230" height="60" as="geometry"/>
                </mxCell>
                <mxCell id="444" value="Level 1 Table3&lt;br&gt;key range: edge-jealout" style="rounded=1;whiteSpace=wrap;html=1;fontSize=16;fillColor=#CEABC5;" parent="451" vertex="1">
                    <mxGeometry x="538" y="212" width="230" height="60" as="geometry"/>
                </mxCell>
                <mxCell id="452" value="" style="endArrow=classic;html=1;fontSize=26;exitX=0.5;exitY=1;exitDx=0;exitDy=0;entryX=0.5;entryY=0;entryDx=0;entryDy=0;strokeColor=#CAC0B7;strokeWidth=7;dashed=1;" parent="1" source="435" target="450" edge="1">
                    <mxGeometry width="50" height="50" relative="1" as="geometry">
                        <mxPoint x="834" y="1115" as="sourcePoint"/>
                        <mxPoint x="884" y="1065" as="targetPoint"/>
                    </mxGeometry>
                </mxCell>
                <mxCell id="457" value="" style="endArrow=classic;html=1;strokeColor=#CAC0B7;strokeWidth=7;fontSize=26;entryX=0;entryY=0.5;entryDx=0;entryDy=0;startArrow=none;" parent="1" source="459" target="436" edge="1">
                    <mxGeometry relative="1" as="geometry">
                        <mxPoint x="1037" y="900.25" as="sourcePoint"/>
                        <mxPoint x="1137" y="900.25" as="targetPoint"/>
                    </mxGeometry>
                </mxCell>
                <mxCell id="460" value="" style="endArrow=classic;html=1;strokeColor=#CAC0B7;strokeWidth=7;fontSize=26;entryX=0;entryY=0.5;entryDx=0;entryDy=0;" parent="1" target="437" edge="1">
                    <mxGeometry relative="1" as="geometry">
                        <mxPoint x="1628" y="902" as="sourcePoint"/>
                        <mxPoint x="1834" y="901.5" as="targetPoint"/>
                    </mxGeometry>
                </mxCell>
                <mxCell id="461" value="" style="endArrow=none;html=1;strokeColor=#CAC0B7;strokeWidth=7;fontSize=26;entryX=0;entryY=0.5;entryDx=0;entryDy=0;" parent="1" target="459" edge="1">
                    <mxGeometry relative="1" as="geometry">
                        <mxPoint x="1037" y="900.25" as="sourcePoint"/>
                        <mxPoint x="1401" y="901.5" as="targetPoint"/>
                    </mxGeometry>
                </mxCell>
                <mxCell id="459" value="VersionEdit" style="rounded=1;whiteSpace=wrap;html=1;fontSize=26;fillColor=#CEAEB9;" parent="1" vertex="1">
                    <mxGeometry x="1093" y="864" width="220" height="75" as="geometry"/>
                </mxCell>
                <mxCell id="462" value="VersionEdit" style="rounded=1;whiteSpace=wrap;html=1;fontSize=26;fillColor=#CEAEB9;" parent="1" vertex="1">
                    <mxGeometry x="1693" y="864" width="220" height="75" as="geometry"/>
                </mxCell>
                <mxCell id="463" value="&lt;div style=&quot;text-align: left; font-size: 29px;&quot;&gt;&lt;span style=&quot;background-color: initial;&quot;&gt;&lt;font style=&quot;font-size: 29px;&quot;&gt;1. add table 14&lt;/font&gt;&lt;/span&gt;&lt;/div&gt;&lt;div style=&quot;text-align: left; font-size: 29px;&quot;&gt;&lt;span style=&quot;background-color: initial;&quot;&gt;&lt;font style=&quot;font-size: 29px;&quot;&gt;2. remove table 8&lt;/font&gt;&lt;/span&gt;&lt;/div&gt;&lt;div style=&quot;text-align: left; font-size: 29px;&quot;&gt;&lt;span style=&quot;background-color: initial;&quot;&gt;&lt;font style=&quot;font-size: 29px;&quot;&gt;3. remove table 11&amp;nbsp;&lt;/font&gt;&lt;/span&gt;&lt;/div&gt;" style="shape=callout;whiteSpace=wrap;html=1;perimeter=calloutPerimeter;fontSize=26;fillColor=#CEAEB9;base=44;" parent="1" vertex="1">
                    <mxGeometry x="1052" y="627" width="330" height="216" as="geometry"/>
                </mxCell>
                <mxCell id="464" value="" style="rounded=1;whiteSpace=wrap;html=1;fontSize=16;fillColor=#E0D3C3;container=0;" parent="1" vertex="1">
                    <mxGeometry x="420" y="1778" width="1263" height="137" as="geometry"/>
                </mxCell>
                <mxCell id="465" value="VersionEdit" style="rounded=1;whiteSpace=wrap;html=1;fontSize=26;fillColor=#CEAEB9;" vertex="1" parent="1">
                    <mxGeometry x="459" y="1803" width="198" height="87" as="geometry"/>
                </mxCell>
                <mxCell id="466" value="VersionEdit" style="rounded=1;whiteSpace=wrap;html=1;fontSize=26;fillColor=#CEAEB9;" vertex="1" parent="1">
                    <mxGeometry x="702" y="1803" width="198" height="87" as="geometry"/>
                </mxCell>
                <mxCell id="467" value="VersionEdit" style="rounded=1;whiteSpace=wrap;html=1;fontSize=26;fillColor=#CEAEB9;" vertex="1" parent="1">
                    <mxGeometry x="945" y="1803" width="198" height="87" as="geometry"/>
                </mxCell>
                <mxCell id="468" value="VersionEdit" style="rounded=1;whiteSpace=wrap;html=1;fontSize=26;fillColor=#CEAEB9;" vertex="1" parent="1">
                    <mxGeometry x="1188" y="1803" width="198" height="87" as="geometry"/>
                </mxCell>
                <mxCell id="469" value="VersionEdit" style="rounded=1;whiteSpace=wrap;html=1;fontSize=26;fillColor=#CEAEB9;" vertex="1" parent="1">
                    <mxGeometry x="1431" y="1803" width="198" height="87" as="geometry"/>
                </mxCell>
                <mxCell id="470" value="&lt;font color=&quot;#ebcdbe&quot; style=&quot;font-size: 26px;&quot;&gt;Manifest&lt;/font&gt;" style="text;html=1;strokeColor=none;fillColor=none;align=center;verticalAlign=middle;whiteSpace=wrap;rounded=0;" vertex="1" parent="1">
                    <mxGeometry x="348" y="1668" width="253" height="132" as="geometry"/>
                </mxCell>
            </root>
        </mxGraphModel>
    </diagram>
</mxfile>